# xmcd
#
# Track frame offsets:
#	150
#	15222
#	26362
#	35890
#	46297
#	62540
#	77229
#	92437
#	104341
#	117068
#	132462
#	138135
#	151931
#	169247
#	182539
#	195898
#	205409
#	215303
#	228027
#	243324
#	257026
#	265523
#	280156
#	294856
#
# Disc length: 4109
#
# Revision: 2
# Processed by: cddbd v1.5.1PL0 Copyright (c) Steve Scherf et al.
# Submitted via: audiograbber 1.82.02
# Normalized: r1:DSETVAR1
#
DISCID=34100b18
DTITLE=Various Artist - Ultimate Country Box 5
DYEAR=1900
DGENRE=Country
TTITLE0=Ray Price - The Old Rugged Cross
TTITLE1=Porter Wagoner - What Would You Do (If Jesus Came To Your House)
TTITLE2=Skeeter Davis - Turn Your Radio On
TTITLE3=Don Gibson - There Is Power In The Blood
TTITLE4=Jim Ed Brown - Whispering Hope
TTITLE5=Connie Smith - Jesus Is Your Ticket To Heaven
TTITLE6=Lee Greenwood - Amen
TTITLE7=Johnny Russell - Softly And Tenderly
TTITLE8=Patsy Cline - Just A Closer Walk With Thee
TTITLE9=Margo Smith - You Light Up My Life
TTITLE10=Narvel Felts - Rock Of Ages
TTITLE11=Johnny Darrell - Little Delta Church
TTITLE12=Lee Greenwood - One Day At A Time
TTITLE13=Ray Price - What a Friend We Have In Jesus
TTITLE14=Lacy J Dalton - Life's A Railway To Heaven
TTITLE15=Merl Kilgore - In The Sweet Bye And Bye
TTITLE16=David Houston - Church In The Wildwood
TTITLE17=Jeanne Pruett - Uncloudy Day
TTITLE18=Jack Green - Why Me, Lord
TTITLE19=Johnny Russell - Baptism Of Jesse
TTITLE20=Carl and Pearl Butler - Leaning On The Everlasting Arms
TTITLE21=Sandy Posey - Put Your Hand In The Hand
TTITLE22=Kenny Price - Peace In The Valley
TTITLE23=Lee Greenwood - Amazing Grace
EXTD=
EXTT0=
EXTT1=
EXTT2=
EXTT3=
EXTT4=
EXTT5=
EXTT6=
EXTT7=
EXTT8=
EXTT9=
EXTT10=
EXTT11=
EXTT12=
EXTT13=
EXTT14=
EXTT15=
EXTT16=
EXTT17=
EXTT18=
EXTT19=
EXTT20=
EXTT21=
EXTT22=
EXTT23=
PLAYORDER=
